# xmcd CD database file
#
# Track frame offsets:
#	150
#	60295
#	110780
#	185572
#	244285
#
# Disc length: 4341 seconds
#
# Revision: 0
# Processed by: cddbd v1.5.1PL0 Copyright (c) Steve Scherf et al.
# Submitted via: CDex 1.51
#
DISCID=4210f305
DTITLE=Various Artist - The BAB GAGA Experience No. 10
DYEAR=2005
DGENRE=Mix
TTITLE0=Top Ten House
TTITLE1=7 Miles of Trance
TTITLE2=Top Ten Rave
TTITLE3=The Trace Area
TTITLE4=The Harddrive
EXTD=YEAR: 2005
EXTT0=
EXTT1=
EXTT2=
EXTT3=
EXTT4=
PLAYORDER=
